<svg xmlns="http://www.w3.org/2000/svg" viewBox="0 0 1019 658.73"><defs><style>.cls-1,.cls-3{fill:none;stroke-miterlimit:10;}.cls-1{stroke:#3f3d56;stroke-width:10px;}.cls-2{fill:#00ff73;}.cls-3{stroke:#008d56;}</style></defs><title>icon-vazio</title><g id="Layer_2" data-name="Layer 2"><g id="Layer_1-2" data-name="Layer 1"><path class="cls-1" d="M606,273.73h86.36A36.18,36.18,0,0,1,722.7,290.2l9.74,15a18.81,18.81,0,0,0,15.76,8.55H975a39,39,0,0,1,39,39v254a47,47,0,0,1-47,47H643a47,47,0,0,1-47-47v-323a10,10,0,0,1,10-10Z"/><path class="cls-1" d="M596,377.73l12.69-11.53a32.54,32.54,0,0,1,21.89-8.47H986.32a32.53,32.53,0,0,1,14.55,3.44l13.13,6.56"/><path class="cls-1" d="M872,449.57a88,88,0,0,1-120.89,127"/><path class="cls-1" d="M742.77,570A88,88,0,0,1,862.68,441.27"/><line class="cls-1" x1="717" y1="595.73" x2="883" y2="419.73"/><path class="cls-2" d="M943,261.73s-16-41,36-73S1024,245.73,943,261.73Z"/><path class="cls-3" d="M952.5,248.23s33-52,47-52"/><polyline class="cls-3" points="965.5 241.23 959.5 237.23 952.5 234.23"/><polyline class="cls-3" points="972.5 231.23 966.5 227.23 959.5 224.23"/><polyline class="cls-3" points="979 222.24 973.02 218.25 966.03 215.25"/><polyline class="cls-3" points="986.5 213.11 980.27 208.11 973 204.36"/><polyline class="cls-3" points="994.5 205.11 988.27 200.11 981 196.36"/><path class="cls-2" d="M942.5,261.23s-7,11-8,19"/><path class="cls-2" d="M795.85,185.07s42.62-10.51,67.52,45.06S801.18,267.24,795.85,185.07Z"/><path class="cls-3" d="M808,196.14s47.27,39.48,45.46,53.36"/><polyline class="cls-3" points="813.25 209.94 818 204.51 821.88 197.96"/><polyline class="cls-3" points="822.26 218.18 827.01 212.75 830.89 206.2"/><polyline class="cls-3" points="830.27 226.29 835.02 220.86 838.9 214.31"/><polyline class="cls-3" points="838.41 234.41 844.18 228.89 848.84 222.17"/><polyline class="cls-3" points="845.31 243.39 851.07 237.86 855.74 231.14"/><path class="cls-2" d="M796.41,184.53s-10-8.37-17.8-10.4"/><path class="cls-2" d="M687,292.73s-16-41,36-73S768,276.73,687,292.73Z"/><path class="cls-3" d="M696.5,279.23s33-52,47-52"/><polyline class="cls-3" points="709.5 272.23 703.5 268.23 696.5 265.23"/><polyline class="cls-3" points="716.5 262.23 710.5 258.23 703.5 255.23"/><polyline class="cls-3" points="723.5 253.23 717.5 249.23 710.5 246.23"/><polyline class="cls-3" points="730.5 244.11 724.27 239.11 717 235.36"/><polyline class="cls-3" points="738.5 236.11 732.27 231.11 725 227.36"/><path class="cls-2" d="M686.5,292.23s-7,11-8,19"/><path class="cls-1" d="M275,28.73c33.42-33.65,87.44-30.19,114,2,.42.51.83,1,1.23,1.54,32,41.28,1.65,101.46-50.62,101.46H60"/><path class="cls-1" d="M501,92.73c33.42-33.65,87.44-30.19,114,2,.42.51.83,1,1.23,1.54,32,41.28,1.65,101.46-50.62,101.46H45"/><path class="cls-1" d="M438,339.73c33.42,33.65,87.44,30.2,114-2q.63-.75,1.23-1.53c32-41.29,1.65-101.47-50.62-101.47H223"/><line class="cls-1" y1="133.73" x2="36" y2="133.73"/><line class="cls-1" x1="141" y1="236.73" x2="196" y2="236.73"/></g></g></svg>