<svg xmlns="http://www.w3.org/2000/svg" viewBox="0 0 778 352"><defs><style>.cls-1,.cls-3,.cls-4,.cls-5,.cls-6,.cls-7{fill:none;stroke-miterlimit:10;}.cls-1,.cls-3,.cls-4,.cls-5,.cls-6{stroke:#3f3d56;}.cls-1{stroke-width:10px;}.cls-2{fill:#3f3d56;}.cls-3{stroke-width:7px;}.cls-4{stroke-width:5px;}.cls-5{stroke-width:8px;}.cls-6{stroke-width:2px;}.cls-7{stroke:#939596;stroke-width:4px;}</style></defs><title>icons-site</title><g id="Layer_2" data-name="Layer 2"><g id="Layer_1-2" data-name="Layer 1"><rect class="cls-1" x="5" y="5" width="560" height="342"/><line class="cls-1" x1="5" y1="73.5" x2="565" y2="73.5"/><rect class="cls-2" x="31.5" y="24.5" width="72" height="26"/><rect class="cls-2" x="353.5" y="31.5" width="72" height="13"/><rect class="cls-2" x="265.5" y="31.5" width="72" height="13"/><rect class="cls-2" x="442.5" y="31.5" width="72" height="13"/><rect class="cls-2" x="31.5" y="96.5" width="496" height="132"/><line class="cls-3" x1="45.76" y1="319" x2="133.5" y2="319"/><rect class="cls-2" x="45" y="251.5" width="87.74" height="52.5"/><line class="cls-3" x1="170.76" y1="319" x2="258.5" y2="319"/><rect class="cls-2" x="170" y="251.5" width="87.74" height="52.5"/><line class="cls-3" x1="293.76" y1="319" x2="381.5" y2="319"/><rect class="cls-2" x="293" y="251.5" width="87.74" height="52.5"/><line class="cls-3" x1="418.76" y1="319" x2="506.5" y2="319"/><rect class="cls-2" x="418" y="251.5" width="87.74" height="52.5"/><rect class="cls-4" x="649.5" y="141.5" width="126" height="205" rx="17" ry="17"/><line class="cls-5" x1="694.5" y1="153.5" x2="728.5" y2="153.5"/><rect class="cls-6" x="662.5" y="162.5" width="98" height="169"/><rect class="cls-2" x="685.01" y="249.5" width="52.99" height="36.13"/><line class="cls-7" x1="697.85" y1="295.26" x2="725.15" y2="295.26"/><line class="cls-7" x1="697.85" y1="306.5" x2="725.15" y2="306.5"/><rect class="cls-2" x="686.01" y="178.5" width="52.99" height="36.13"/><line class="cls-7" x1="698.85" y1="224.26" x2="726.15" y2="224.26"/><line class="cls-7" x1="698.85" y1="235.5" x2="726.15" y2="235.5"/></g></g></svg>