<svg xmlns="http://www.w3.org/2000/svg" viewBox="0 0 491.02 492.13"><defs><style>.cls-1{fill:#3f3d56;}</style></defs><title>phone</title><g id="Layer_2" data-name="Layer 2"><g id="Layer_2-2" data-name="Layer 2"><path class="cls-1" d="M491.13,392.76c.5,56-.5,71-.5,71s4,34.5-52.5,27.75S114,457,16.31,150.38c0,0-16.43-85.59-16-104.1S4.63-.24,43.13.26s79.5.5,79.5.5,23-6.89,28,36.27a511.22,511.22,0,0,0,8.79,51.1,348.12,348.12,0,0,1,6.17,36.63c3.67,33.14-74.71,87.21-67,88,0,0,81,144,180,180l59.5-60.5s9.26-7.56,47.38-.53,78.12,10,78.12,10S490.63,336.76,491.13,392.76Z" transform="translate(-0.25 -0.25)"/></g></g></svg>