<svg xmlns="http://www.w3.org/2000/svg" viewBox="0 0 505.78 361.92"><defs><style>.cls-1,.cls-10,.cls-2,.cls-5,.cls-6,.cls-8{fill:none;}.cls-1,.cls-10,.cls-2,.cls-5,.cls-8,.cls-9{stroke:#3f3d56;}.cls-1,.cls-10,.cls-2,.cls-5,.cls-6,.cls-8,.cls-9{stroke-miterlimit:10;}.cls-1{stroke-width:4px;}.cls-2{stroke-width:3px;}.cls-3,.cls-9{fill:#3f3d56;}.cls-4{fill:#7daad3;opacity:0.44;}.cls-5{stroke-width:2px;}.cls-6{stroke:#fff;}.cls-7{fill:#fff;}.cls-8{stroke-width:11px;}.cls-9{stroke-width:10px;}</style></defs><title>svg-ilustracao</title><g id="Layer_2" data-name="Layer 2"><g id="Layer_1-2" data-name="Layer 1"><path class="cls-1" d="M104.49,181s56.41-3.92,54.28,27.24c0,0-9.94,52.86,42.22,31.86"/><polygon class="cls-2" points="199.46 240.5 198.84 243.26 183.91 309.95 204.74 321.87 208.45 335.52 201.13 338.24 207.06 360.07 252.1 347.83 244.8 326.37 239.34 327.85 235.13 315.07 247.67 291.14 199.46 240.5"/><line class="cls-2" x1="211.34" y1="284.17" x2="199.46" y2="240.5"/><circle class="cls-3" cx="213.13" cy="288.08" r="6"/><rect class="cls-4" x="174.99" width="285" height="167"/><rect class="cls-3" x="200.89" y="329.02" width="50.2" height="26.18" transform="translate(-81.85 71.29) rotate(-15.21)"/><path class="cls-5" d="M494,207.56l9.07,12.09a8.61,8.61,0,0,1-1.86,12L485.76,243.3a8.62,8.62,0,0,1-12.07-1.57l-9.07-12.09Z"/><polygon class="cls-3" points="392.47 133.49 463.16 227.7 492.59 205.62 421.89 111.41 388.45 97.52 392.47 133.49"/><line class="cls-6" x1="482.13" y1="201.48" x2="422.8" y2="122.41"/><line class="cls-6" x1="476.27" y1="205.88" x2="416.94" y2="126.81"/><line class="cls-6" x1="469.18" y1="211.2" x2="409.85" y2="132.13"/><line class="cls-6" x1="462.71" y1="216.06" x2="403.37" y2="136.99"/><polygon class="cls-7" points="420.92 112.69 390.4 99.96 394.1 132.82 420.92 112.69"/><path class="cls-3" d="M59.21,125.66C56.92,121,63.67,114.45,68,110.89a12.45,12.45,0,0,1,7-2.76c58.05-4,57-15.27,57-15.27l-45.81-.31s-44.09,22.37-27.06,33.07"/><path class="cls-3" d="M131,93.32l-44.85-.74,27.66-32.53s-9.41-7.64-48.51,30.61a12.09,12.09,0,0,1-6.77,3.25c-5.08.72-13.37,1.35-17.19-1.48l-6.59,9"/><path class="cls-8" d="M35.31,102.94c6-1,37.74-5.33,9.48,19"/><ellipse class="cls-9" cx="47.73" cy="137.89" rx="17.93" ry="15.9"/><ellipse class="cls-9" cx="22.93" cy="91.42" rx="17.93" ry="15.9"/><ellipse class="cls-7" cx="22.93" cy="91.42" rx="10.51" ry="9.32"/><ellipse class="cls-7" cx="48.46" cy="137.57" rx="10.51" ry="9.32"/><polyline class="cls-10" points="52.22 123.2 59.2 125.66 53.62 119.49"/><path class="cls-3" d="M42,99.89l1.2,2.18s27.25-2.3,2.77,18.86l9.71,3.5,9.15-15.29L81.47,99l-8.39-6.47Z"/><ellipse class="cls-7" cx="64.62" cy="101.92" rx="3.37" ry="2.99"/></g></g></svg>